<svg enable-background="new 0 0 510 510" height="20" width="20" viewBox="0 0 510 510" xmlns="http://www.w3.org/2000/svg"><path d="m507.32 261.86c-24.21 26.26-119.15 118.99-252.32 118.99s-228.11-92.73-252.32-118.99c-3.57-3.88-3.57-9.84 0-13.72 24.21-26.26 119.15-118.99 252.32-118.99s228.11 92.73 252.32 118.99c3.57 3.88 3.57 9.84 0 13.72z" fill="#d7ebed"/><path d="m507.32 261.86c-24.21 26.26-119.15 118.99-252.32 118.99v-251.7c133.17 0 228.11 92.73 252.32 118.99 3.57 3.88 3.57 9.84 0 13.72z" fill="#b6dade"/><circle cx="255" cy="255" fill="#ad5e2e" r="95"/><path d="m350 255c0 52.463-42.537 95-95 95v-190c52.463 0 95 42.537 95 95z" fill="#7e5436"/><circle cx="255" cy="255" fill="#685e68" r="32"/><path d="m287 255c0 17.676-14.324 32-32 32v-64c17.676 0 32 14.324 32 32z" fill="#40383f"/><g fill="#685e68"><path d="m255 0c-8.284 0-15 6.716-15 15v35c0 8.284 6.716 15 15 15s15-6.716 15-15v-35c0-8.284-6.716-15-15-15z"/><path d="m344.5 85.062c7.192 4.102 16.355 1.601 20.461-5.599l19.962-35c4.104-7.196 1.599-16.356-5.598-20.461-7.198-4.104-16.356-1.599-20.461 5.599l-19.962 35c-4.104 7.195-1.598 16.356 5.598 20.461z"/><path d="m151.136 29.6c-4.104-7.196-13.266-9.702-20.461-5.598-7.196 4.104-9.702 13.265-5.598 20.461l19.962 35c4.104 7.196 13.264 9.702 20.461 5.598 7.196-4.104 9.702-13.265 5.598-20.461z"/></g><path d="m255 445c-8.284 0-15 6.716-15 15v35c0 8.284 6.716 15 15 15s15-6.716 15-15v-35c0-8.284-6.716-15-15-15z" fill="#40383f"/><path d="m165.5 424.938c-7.196-4.103-16.356-1.598-20.461 5.598l-19.962 35c-4.104 7.196-1.598 16.357 5.598 20.461 7.197 4.104 16.357 1.597 20.461-5.598l19.962-35c4.105-7.195 1.598-16.356-5.598-20.461z" fill="#40383f"/><path d="m364.961 430.537c-4.104-7.197-13.267-9.701-20.461-5.599-7.196 4.104-9.702 13.265-5.598 20.461l19.962 35c4.103 7.196 13.263 9.703 20.461 5.599 7.196-4.104 9.702-13.265 5.598-20.461z" fill="#40383f"/></svg>